# xmcd CD database file
#
# Track frame offsets:
#	150
#	20325
#	43115
#	57385
#	79250
#	95900
#	111970
#	132315
#	143340
#	162505
#
# Disc length: 2386 seconds
#
# Revision: 1
# Processed by: cddbd v1.4PL0 Copyright (c) Steve Scherf et al.
# Submitted via: CDex 1.50
#
DISCID=8909500a
DTITLE=Mary Hawkins - Black and Blue
DYEAR=2002
DGENRE=Blues
TTITLE0=Baby I Am Your Crime
TTITLE1=Sex Machine
TTITLE2=Useless Blues
TTITLE3=Yesteryears
TTITLE4=Kick Ass Blues
TTITLE5=For Your New Year
TTITLE6=My Problem
TTITLE7=Breakin' In The New Year
TTITLE8=Always
TTITLE9=Fool I've Always Been
EXTD=YEAR: 2002
EXTT0=
EXTT1=
EXTT2=
EXTT3=
EXTT4=
EXTT5=
EXTT6=
EXTT7=
EXTT8=
EXTT9=
PLAYORDER=
